<svg id="Ebene_1" data-name="Ebene 1" xmlns="http://www.w3.org/2000/svg" viewBox="0 0 662.22 133.55"><defs><style>.cls-1{fill:#fff;}</style></defs><title>wheregroup-logo-white</title><path class="cls-1" d="M221.47,83q4.11,13.73,8.22,24.88t8.08,20.46q2.94-10.08,5.91-23.73t5.75-28.87h5.72q-1.58,9.15-3.14,17.13t-3.28,15.21q-1.72,7.2-3.62,13.82t-4.12,13h-6.25l-4-9.75q-2-4.87-4-10t-4-10.8q-2-5.62-4-12-2,6.35-4,12t-3.95,10.81q-2,5.17-4,10t-4.11,9.7h-6.11q-2.33-6.42-4.25-13t-3.6-13.84q-1.67-7.22-3.18-15.2t-3.06-17.11h6q1.32,7.5,2.67,14.72t2.86,14q1.5,6.73,3.06,12.76c1.05,4,2.09,7.74,3.15,11.15q3.65-9.47,7.85-20.52T216.42,83Z" transform="translate(-19.48 -38.88)"/><path class="cls-1" d="M267.19,134.92v-59h5.55V92.05a34.3,34.3,0,0,1,5.55-1.58,29.15,29.15,0,0,1,5.64-.56,22.09,22.09,0,0,1,8.54,1.45,13.16,13.16,0,0,1,5.46,4.15,16,16,0,0,1,2.86,6.44,39.44,39.44,0,0,1,.81,8.29v24.68h-5.55V112a41.53,41.53,0,0,0-.64-7.94,13.39,13.39,0,0,0-2.13-5.3,8.26,8.26,0,0,0-4-2.94,18.41,18.41,0,0,0-6.23-.9,19.27,19.27,0,0,0-3.11.26c-1.12.17-2.15.35-3.12.55s-1.84.41-2.61.64a13.3,13.3,0,0,0-1.49.51v38h-5.55Z" transform="translate(-19.48 -38.88)"/><path class="cls-1" d="M314.84,112.8a28,28,0,0,1,1.66-10.12,22.19,22.19,0,0,1,4.36-7.22A17.15,17.15,0,0,1,327,91.15a18.69,18.69,0,0,1,7.13-1.41q8.1,0,12.93,5.3t4.83,16.31c0,.45,0,.91,0,1.36s-.08.89-.13,1.28h-31q.25,8.12,4,12.47t12,4.36a24,24,0,0,0,7.17-.86,29.94,29.94,0,0,0,3.85-1.45l1,4.78a23,23,0,0,1-4.48,1.63,28.57,28.57,0,0,1-7.73.93,25.92,25.92,0,0,1-9.91-1.7,17.72,17.72,0,0,1-6.74-4.79,18.87,18.87,0,0,1-3.85-7.3A33.76,33.76,0,0,1,314.84,112.8Zm31.34-3.5q-.18-6.92-3.25-10.76a10.52,10.52,0,0,0-8.71-3.85,11.52,11.52,0,0,0-5.33,1.2,13.43,13.43,0,0,0-4.1,3.2,14.93,14.93,0,0,0-2.74,4.66,19,19,0,0,0-1.15,5.55Z" transform="translate(-19.48 -38.88)"/><path class="cls-1" d="M381,89.91a30.26,30.26,0,0,1,5.16.43,16.58,16.58,0,0,1,3.38.85L388.45,96a12.42,12.42,0,0,0-2.78-.73,31.33,31.33,0,0,0-5.51-.38,26.15,26.15,0,0,0-5.76.51,16.42,16.42,0,0,0-2.86.85v38.69H366V92.82a39.55,39.55,0,0,1,5.89-1.92A36.37,36.37,0,0,1,381,89.91Z" transform="translate(-19.48 -38.88)"/><path class="cls-1" d="M397,112.8a28,28,0,0,1,1.66-10.12A22.19,22.19,0,0,1,403,95.46a17.21,17.21,0,0,1,6.14-4.31,18.78,18.78,0,0,1,7.14-1.41q8.1,0,12.93,5.3t4.83,16.31c0,.45,0,.91,0,1.36s-.08.89-.13,1.28h-31q.25,8.12,4,12.47t12,4.36A24,24,0,0,0,426,130a29.09,29.09,0,0,0,3.84-1.45l1,4.78a22.87,22.87,0,0,1-4.49,1.63,28.49,28.49,0,0,1-7.72.93,25.88,25.88,0,0,1-9.91-1.7,17.83,17.83,0,0,1-6.75-4.79,19,19,0,0,1-3.84-7.3A34.15,34.15,0,0,1,397,112.8Zm31.34-3.5q-.18-6.92-3.25-10.76a10.52,10.52,0,0,0-8.71-3.85,11.59,11.59,0,0,0-5.34,1.2,13.67,13.67,0,0,0-4.1,3.2,15.1,15.1,0,0,0-2.73,4.66,19,19,0,0,0-1.15,5.55Z" transform="translate(-19.48 -38.88)"/><path class="cls-1" d="M487.93,106.91h5.81v26.38a44.15,44.15,0,0,1-6.36,1.75,54.17,54.17,0,0,1-11.66,1.07A27.8,27.8,0,0,1,465,134.06a24.26,24.26,0,0,1-8.58-5.93,27.41,27.41,0,0,1-5.68-9.65,39.22,39.22,0,0,1-2.05-13.2,36.51,36.51,0,0,1,2.22-13.19,28,28,0,0,1,6-9.65,25.9,25.9,0,0,1,8.84-5.94,28.38,28.38,0,0,1,10.76-2,35.56,35.56,0,0,1,10.85,1.4,28.66,28.66,0,0,1,6.23,2.69l-2,5a19.77,19.77,0,0,0-6.49-2.78,35.35,35.35,0,0,0-8.89-1.06,21.66,21.66,0,0,0-8.36,1.62A18.57,18.57,0,0,0,461,86.16a23.51,23.51,0,0,0-4.56,8,33.74,33.74,0,0,0-1.67,11.1,38.44,38.44,0,0,0,1.37,10.64,22.31,22.31,0,0,0,4.14,8.11,18.27,18.27,0,0,0,6.87,5.17,23.58,23.58,0,0,0,9.48,1.79,47.79,47.79,0,0,0,7.3-.47,19.72,19.72,0,0,0,4-.9V106.91Z" transform="translate(-19.48 -38.88)"/><path class="cls-1" d="M523.63,89.91a30.26,30.26,0,0,1,5.16.43,16.58,16.58,0,0,1,3.38.85L531.06,96a12.42,12.42,0,0,0-2.78-.73,31.33,31.33,0,0,0-5.51-.38,26.15,26.15,0,0,0-5.76.51,16.42,16.42,0,0,0-2.86.85v38.69H508.6V92.82a39.55,39.55,0,0,1,5.89-1.92A36.32,36.32,0,0,1,523.63,89.91Z" transform="translate(-19.48 -38.88)"/><path class="cls-1" d="M579.9,112.88a28.66,28.66,0,0,1-1.49,9.48,21.05,21.05,0,0,1-4.19,7.26,19,19,0,0,1-6.36,4.66,20.64,20.64,0,0,1-16.22,0,19.18,19.18,0,0,1-6.37-4.66,21.19,21.19,0,0,1-4.18-7.26,30.71,30.71,0,0,1,0-19,21.6,21.6,0,0,1,4.18-7.3,18.86,18.86,0,0,1,6.37-4.69,20.53,20.53,0,0,1,16.22,0,18.73,18.73,0,0,1,6.36,4.69,21.62,21.62,0,0,1,4.19,7.3A28.74,28.74,0,0,1,579.9,112.88Zm-5.89,0q0-8.28-3.84-13.19a13.51,13.51,0,0,0-20.84,0q-3.84,4.92-3.84,13.19T549.33,126a13.6,13.6,0,0,0,20.84,0Q574,121.17,574,112.88Z" transform="translate(-19.48 -38.88)"/><path class="cls-1" d="M627.55,133.38c-1.65.45-3.87,1-6.66,1.54a53,53,0,0,1-10.25.85,20.71,20.71,0,0,1-8.28-1.45,13.55,13.55,0,0,1-5.38-4.1,16.62,16.62,0,0,1-3-6.41,36.06,36.06,0,0,1-.89-8.28V90.77h5.55v23a39.65,39.65,0,0,0,.68,7.94,13.06,13.06,0,0,0,2.22,5.25,8.6,8.6,0,0,0,4,2.9,17.13,17.13,0,0,0,5.93.9,46.72,46.72,0,0,0,6.83-.43,17.69,17.69,0,0,0,3.67-.77V90.76h5.55v42.62Z" transform="translate(-19.48 -38.88)"/><path class="cls-1" d="M649.5,150.71h-5.56V92.3A47.42,47.42,0,0,1,660,89.91a23.82,23.82,0,0,1,8.84,1.58,19.32,19.32,0,0,1,6.83,4.57,20.72,20.72,0,0,1,4.44,7.26,26.21,26.21,0,0,1,1.58,9.65,33.92,33.92,0,0,1-1.32,8.47,23.09,23.09,0,0,1-3.06,6.5,17.22,17.22,0,0,1-6.64,5.52,22.87,22.87,0,0,1-8.4,2.17,35.41,35.41,0,0,1-12.78-1.53v16.61Zm0-21.74a31.46,31.46,0,0,0,12.08,1.78,14.64,14.64,0,0,0,6.59-1.75,13.18,13.18,0,0,0,4.66-4.5,23.47,23.47,0,0,0,3-11.53c.16-5.81-1.45-10.26-4.36-13.37A15,15,0,0,0,659.92,95a46.63,46.63,0,0,0-6.62.38,24.09,24.09,0,0,0-3.8.82V129Z" transform="translate(-19.48 -38.88)"/><path class="cls-1" d="M142.2,138.15c-17.62.84-26.51-24.28-27.73-38.28-1-11.65,4-32.11,19.71-25.41a20.3,20.3,0,0,1,4.93,3.21,81.76,81.76,0,0,0-25.25-26.2,22.57,22.57,0,0,1,3.34,5.37C123.69,72.52,105.46,78.52,93,77.32,78,75.86,54,65.67,54.08,47.64a11,11,0,0,1,1.53-5.27A64.16,64.16,0,0,0,22.73,65.85a38.52,38.52,0,0,1,11.18-2.77c20.56-1.59,39,13.31,39.45,34.47.49,23.42-19.94,42.66-42.88,42.86a35,35,0,0,1-11-1.87,81.27,81.27,0,0,0,34.57,33.89,32,32,0,0,1-1.2-8.71c.36-22.55,19.59-42.82,42.59-42.54,20.4.25,34.19,18,32.07,37.72a37.1,37.1,0,0,1-1.85,7.77,64.82,64.82,0,0,0,20.76-29.85A9.86,9.86,0,0,1,142.2,138.15Z" transform="translate(-19.48 -38.88)"/><path class="cls-1" d="M92.07,67.42c7.77.85,20.91-2.59,16.6-13-3.59-8.68-14.26-13.58-23-15.11-6.62-1.17-19.61-.58-19.52,8.84C66.31,59.78,82.51,66.37,92.07,67.42Z" transform="translate(-19.48 -38.88)"/></svg>