<?xml version="1.0" encoding="utf-8"?>
<!-- Generator: Adobe Illustrator 15.0.0, SVG Export Plug-In . SVG Version: 6.00 Build 0)  -->
<!DOCTYPE svg PUBLIC "-//W3C//DTD SVG 1.1//EN" "http://www.w3.org/Graphics/SVG/1.1/DTD/svg11.dtd">
<svg version="1.1" id="Ebene_1" xmlns="http://www.w3.org/2000/svg" xmlns:xlink="http://www.w3.org/1999/xlink" x="0px" y="0px"
	 width="720px" height="211px" viewBox="0 0 720 211" enable-background="new 0 0 720 211" xml:space="preserve">
<path d="M221.466,82.996c2.745,9.15,5.483,17.445,8.22,24.883c2.734,7.438,5.43,14.26,8.084,20.462
	c1.955-6.72,3.928-14.631,5.915-23.735c1.988-9.103,3.901-18.726,5.74-28.869h5.724c-1.053,6.099-2.097,11.812-3.138,17.138
	c-1.04,5.327-2.135,10.393-3.285,15.201c-1.149,4.809-2.356,9.417-3.616,13.826c-1.26,4.41-2.635,8.747-4.124,13.015h-6.249
	c-1.34-3.254-2.679-6.505-4.016-9.75s-2.663-6.589-3.98-10.031c-1.316-3.441-2.634-7.038-3.951-10.793
	c-1.318-3.755-2.643-7.739-3.977-11.953c-1.354,4.229-2.693,8.225-4.021,11.984c-1.33,3.761-2.648,7.364-3.957,10.809
	s-2.633,6.789-3.969,10.034c-1.338,3.245-2.705,6.479-4.102,9.699h-6.119c-1.543-4.272-2.957-8.615-4.242-13.031
	c-1.285-4.415-2.484-9.027-3.6-13.836c-1.116-4.809-2.177-9.875-3.182-15.197c-1.006-5.321-2.025-11.025-3.06-17.115h5.978
	c0.883,5.004,1.775,9.913,2.674,14.726c0.899,4.812,1.852,9.467,2.854,13.963c1.003,4.497,2.025,8.752,3.067,12.768
	c1.042,4.017,2.091,7.731,3.146,11.147c2.428-6.315,5.047-13.156,7.852-20.524c2.805-7.367,5.568-15.641,8.293-24.821H221.466z"/>
<path d="M267.188,134.916V75.875h5.551v16.172c1.822-0.683,3.672-1.209,5.551-1.58c1.879-0.37,3.758-0.555,5.637-0.555
	c3.416,0,6.262,0.484,8.539,1.452c2.276,0.969,4.1,2.348,5.465,4.142c1.367,1.793,2.319,3.943,2.861,6.447
	c0.541,2.506,0.811,5.267,0.811,8.283v24.68h-5.551V112.03c0-3.131-0.213-5.778-0.64-7.942c-0.427-2.163-1.14-3.928-2.135-5.295
	c-0.997-1.366-2.321-2.348-3.972-2.946c-1.651-0.598-3.729-0.897-6.233-0.897c-0.969,0-2.007,0.085-3.116,0.256
	c-1.111,0.171-2.15,0.356-3.117,0.555c-0.969,0.2-1.836,0.414-2.605,0.64c-0.768,0.229-1.268,0.399-1.494,0.513v38.001H267.188z"/>
<path d="M314.838,112.799c0-3.871,0.555-7.244,1.664-10.12c1.111-2.874,2.562-5.28,4.355-7.216c1.793-1.935,3.844-3.373,6.148-4.312
	c2.307-0.939,4.683-1.409,7.131-1.409c5.408,0,9.721,1.765,12.938,5.294c3.216,3.531,4.824,8.967,4.824,16.311
	c0,0.456-0.014,0.911-0.042,1.366c-0.029,0.457-0.072,0.884-0.128,1.281h-30.999c0.171,5.409,1.508,9.564,4.014,12.468
	c2.505,2.903,6.49,4.355,11.956,4.355c3.016,0,5.407-0.284,7.173-0.854c1.764-0.568,3.045-1.053,3.843-1.451l1.024,4.782
	c-0.798,0.456-2.292,0.996-4.483,1.622s-4.769,0.939-7.729,0.939c-3.871,0-7.173-0.57-9.905-1.708
	c-2.733-1.138-4.982-2.732-6.747-4.782s-3.045-4.483-3.842-7.301C315.234,119.246,314.838,116.158,314.838,112.799z
	 M346.178,109.297c-0.115-4.611-1.195-8.198-3.245-10.759c-2.05-2.562-4.953-3.843-8.71-3.843c-1.994,0-3.772,0.399-5.338,1.195
	c-1.566,0.798-2.933,1.865-4.099,3.203c-1.167,1.338-2.079,2.89-2.733,4.654c-0.654,1.765-1.039,3.616-1.152,5.55H346.178z"/>
<path d="M381.018,89.913c1.821,0,3.545,0.143,5.166,0.427c1.623,0.286,2.746,0.57,3.373,0.854l-1.109,4.782
	c-0.457-0.227-1.381-0.47-2.775-0.726c-1.396-0.256-3.232-0.384-5.509-0.384c-2.391,0-4.312,0.171-5.764,0.513
	c-1.452,0.341-2.406,0.627-2.861,0.854v38.684h-5.55v-42.1c1.422-0.626,3.386-1.266,5.892-1.921
	C374.385,90.241,377.431,89.913,381.018,89.913z"/>
<path d="M396.986,112.799c0-3.871,0.556-7.244,1.666-10.12c1.109-2.874,2.562-5.28,4.354-7.216c1.794-1.935,3.843-3.373,6.148-4.312
	s4.683-1.409,7.131-1.409c5.408,0,9.721,1.765,12.938,5.294c3.216,3.531,4.825,8.967,4.825,16.311c0,0.456-0.015,0.911-0.043,1.366
	c-0.029,0.457-0.072,0.884-0.128,1.281h-30.999c0.171,5.409,1.508,9.564,4.014,12.468c2.505,2.903,6.49,4.355,11.955,4.355
	c3.018,0,5.408-0.284,7.174-0.854c1.764-0.568,3.045-1.053,3.843-1.451l1.024,4.782c-0.798,0.456-2.292,0.996-4.483,1.622
	c-2.192,0.626-4.769,0.939-7.728,0.939c-3.873,0-7.174-0.57-9.906-1.708s-4.982-2.732-6.746-4.782
	c-1.766-2.05-3.047-4.483-3.843-7.301C397.385,119.246,396.986,116.158,396.986,112.799z M428.327,109.297
	c-0.115-4.611-1.195-8.198-3.245-10.759c-2.05-2.562-4.953-3.843-8.71-3.843c-1.994,0-3.772,0.399-5.338,1.195
	c-1.566,0.798-2.933,1.865-4.099,3.203c-1.168,1.338-2.079,2.89-2.732,4.654c-0.655,1.765-1.04,3.616-1.153,5.55H428.327z"/>
<path d="M487.932,106.906h5.808v26.388c-1.082,0.456-3.203,1.039-6.362,1.75c-3.16,0.711-7.045,1.067-11.656,1.067
	c-3.872,0-7.459-0.683-10.76-2.049c-3.303-1.367-6.163-3.344-8.583-5.936c-2.42-2.59-4.312-5.807-5.679-9.649
	s-2.049-8.241-2.049-13.194c0-4.953,0.739-9.35,2.22-13.193c1.479-3.843,3.486-7.059,6.021-9.65c2.532-2.59,5.479-4.569,8.839-5.935
	c3.358-1.366,6.944-2.049,10.76-2.049c4.383,0,7.997,0.47,10.845,1.409c2.847,0.939,4.924,1.836,6.234,2.69l-1.965,4.953
	c-1.594-1.138-3.757-2.063-6.489-2.775c-2.733-0.711-5.693-1.067-8.882-1.067c-2.961,0-5.751,0.542-8.368,1.623
	c-2.619,1.082-4.897,2.705-6.832,4.868c-1.936,2.164-3.458,4.839-4.568,8.027c-1.11,3.189-1.665,6.889-1.665,11.101
	c0,3.929,0.455,7.473,1.366,10.632c0.91,3.16,2.291,5.864,4.142,8.113c1.85,2.249,4.142,3.971,6.874,5.166s5.893,1.794,9.479,1.794
	c2.903,0,5.337-0.156,7.301-0.47c1.964-0.312,3.288-0.611,3.971-0.897V106.906z"/>
<path d="M523.627,89.913c1.821,0,3.544,0.143,5.166,0.427c1.623,0.286,2.746,0.57,3.373,0.854l-1.11,4.782
	c-0.456-0.227-1.381-0.47-2.775-0.726c-1.396-0.256-3.231-0.384-5.508-0.384c-2.391,0-4.312,0.171-5.764,0.513
	c-1.452,0.341-2.406,0.627-2.861,0.854v38.684h-5.551v-42.1c1.423-0.626,3.387-1.266,5.893-1.921
	C516.994,90.241,520.04,89.913,523.627,89.913z"/>
<path d="M579.902,112.884c0,3.474-0.499,6.633-1.495,9.479s-2.391,5.266-4.185,7.258c-1.793,1.994-3.914,3.544-6.361,4.654
	c-2.448,1.11-5.153,1.665-8.112,1.665c-2.961,0-5.666-0.555-8.113-1.665c-2.448-1.11-4.568-2.66-6.361-4.654
	c-1.794-1.992-3.189-4.411-4.185-7.258c-0.997-2.847-1.495-6.006-1.495-9.479c0-3.472,0.498-6.632,1.495-9.479
	c0.995-2.846,2.391-5.28,4.185-7.301c1.793-2.02,3.913-3.586,6.361-4.697c2.447-1.11,5.152-1.665,8.113-1.665
	c2.959,0,5.664,0.555,8.112,1.665c2.447,1.11,4.568,2.677,6.361,4.697c1.794,2.021,3.188,4.456,4.185,7.301
	C579.403,106.252,579.902,109.412,579.902,112.884z M574.01,112.884c0-5.521-1.281-9.919-3.843-13.193
	c-2.562-3.273-6.035-4.91-10.418-4.91c-4.385,0-7.856,1.637-10.419,4.91c-2.562,3.274-3.843,7.672-3.843,13.193
	c0,5.522,1.281,9.906,3.843,13.151c2.562,3.245,6.034,4.867,10.419,4.867c4.383,0,7.855-1.622,10.418-4.867
	C572.729,122.79,574.01,118.406,574.01,112.884z"/>
<path d="M627.552,133.379c-1.652,0.456-3.872,0.969-6.661,1.537c-2.79,0.568-6.206,0.854-10.247,0.854
	c-3.303,0-6.063-0.484-8.283-1.451c-2.221-0.968-4.014-2.334-5.38-4.099s-2.349-3.899-2.946-6.405
	c-0.598-2.504-0.896-5.265-0.896-8.283V90.767h5.551v22.972c0,3.131,0.227,5.778,0.683,7.941c0.455,2.164,1.195,3.915,2.221,5.252
	c1.024,1.338,2.348,2.306,3.971,2.903c1.622,0.598,3.6,0.896,5.935,0.896c2.618,0,4.896-0.142,6.832-0.427
	c1.935-0.284,3.159-0.54,3.672-0.769v-38.77h5.551V133.379z"/>
<path d="M649.496,150.714h-5.551v-58.41c1.65-0.568,3.758-1.11,6.319-1.623c2.562-0.512,5.807-0.769,9.735-0.769
	c3.245,0,6.191,0.527,8.839,1.58c2.646,1.054,4.923,2.577,6.831,4.569c1.907,1.994,3.387,4.413,4.44,7.259
	c1.053,2.847,1.653,6.064,1.58,9.65c-0.062,3.08-0.689,6.405-1.315,8.468c-0.688,2.266-1.526,4.17-3.062,6.5
	c-1.391,2.109-3.844,4.141-6.642,5.522c-2.057,1.016-5.011,1.941-8.396,2.174c-3.583,0.246-8.535-0.128-12.779-1.534V150.714z
	 M649.496,128.969c1.913,0.831,6.251,1.898,12.088,1.781c2.011-0.04,4.534-0.592,6.583-1.75c2.194-1.241,3.874-3.134,4.666-4.5
	c1.834-3.167,2.834-6.833,2.965-11.53c0.162-5.805-1.451-10.261-4.354-13.365c-2.904-3.103-6.747-4.654-11.528-4.654
	c-2.733,0-4.94,0.128-6.618,0.384c-1.681,0.256-2.946,0.527-3.801,0.812V128.969z"/>
<g>
	<path fill="#B1173F" d="M142.204,138.147c-17.619,0.845-26.514-24.279-27.733-38.279c-1.015-11.648,3.981-32.11,19.713-25.406
		c1.796,0.766,3.435,1.962,4.925,3.206c-6.376-10.545-14.942-19.446-25.249-26.2c1.301,1.636,2.541,3.424,3.344,5.368
		c6.485,15.687-11.74,21.688-24.182,20.48C78.02,75.86,53.993,65.667,54.076,47.637c0.009-1.831,0.641-3.69,1.535-5.266
		C42.33,46.521,30.95,54.623,22.729,65.854c3.553-1.41,7.354-2.479,11.18-2.774c20.565-1.587,39.006,13.306,39.45,34.466
		c0.492,23.425-19.937,42.666-42.879,42.862c-3.714,0.032-7.483-0.721-11.001-1.869c7.885,14.586,19.806,26.33,34.569,33.893
		c-0.748-2.814-1.25-5.786-1.202-8.707c0.359-22.559,19.596-42.821,42.59-42.542c20.402,0.249,34.196,18.031,32.071,37.718
		c-0.285,2.641-0.993,5.26-1.847,7.767c9.687-7.808,16.76-18.071,20.759-29.843C145.146,137.527,143.67,138.078,142.204,138.147z"/>
	<path fill="#B1173F" d="M92.074,67.419c7.764,0.854,20.902-2.587,16.598-12.991c-3.59-8.678-14.258-13.58-22.957-15.109
		c-6.629-1.165-19.615-0.582-19.52,8.837C66.314,59.784,82.508,66.367,92.074,67.419z"/>
</g>
</svg>
